<?xml version="1.0" encoding="UTF-8" standalone="no"?>
<!-- Created with Inkscape (http://www.inkscape.org/) -->

<svg
   xmlns:dc="http://purl.org/dc/elements/1.1/"
   xmlns:cc="http://creativecommons.org/ns#"
   xmlns:rdf="http://www.w3.org/1999/02/22-rdf-syntax-ns#"
   xmlns:svg="http://www.w3.org/2000/svg"
   xmlns="http://www.w3.org/2000/svg"
   xmlns:xlink="http://www.w3.org/1999/xlink"
   xmlns:sodipodi="http://sodipodi.sourceforge.net/DTD/sodipodi-0.dtd"
   xmlns:inkscape="http://www.inkscape.org/namespaces/inkscape"
   version="1.0"
   width="1000.0004"
   height="352.00058"
   id="svg1833"
   sodipodi:version="0.32"
   inkscape:version="0.48.3.1 r9886"
   sodipodi:docname="CC-BY-SA-working.svg"
   inkscape:output_extension="org.inkscape.output.svg.inkscape">
  <metadata
     id="metadata74">
    <rdf:RDF>
      <cc:Work
         rdf:about="">
        <dc:format>image/svg+xml</dc:format>
        <dc:type
           rdf:resource="http://purl.org/dc/dcmitype/StillImage" />
      </cc:Work>
    </rdf:RDF>
  </metadata>
  <sodipodi:namedview
     inkscape:window-height="744"
     inkscape:window-width="1301"
     inkscape:pageshadow="2"
     inkscape:pageopacity="0.0"
     guidetolerance="10.0"
     gridtolerance="10.0"
     objecttolerance="10.0"
     borderopacity="1.0"
     bordercolor="#666666"
     pagecolor="#ffffff"
     id="base"
     showgrid="false"
     inkscape:zoom="1"
     inkscape:cx="515.23381"
     inkscape:cy="111.76401"
     inkscape:window-x="65"
     inkscape:window-y="24"
     inkscape:current-layer="svg1833"
     inkscape:window-maximized="1"
     showguides="true"
     inkscape:guide-bbox="true"
     inkscape:snap-global="true"
     fit-margin-top="0"
     fit-margin-left="0"
     fit-margin-right="0"
     fit-margin-bottom="0">
    <sodipodi:guide
       orientation="0,1"
       position="-0.30710652,351.99959"
       id="guide3524" />
    <sodipodi:guide
       orientation="1,0"
       position="1000.0015,-0.27776044"
       id="guide3526" />
    <sodipodi:guide
       orientation="0,1"
       position="1000.6421,-0.00041044098"
       id="guide3528" />
    <sodipodi:guide
       orientation="1,0"
       position="0.0028884819,350.69854"
       id="guide3530" />
    <sodipodi:guide
       orientation="0,1"
       position="534.38821,323.6324"
       id="guide4531" />
    <sodipodi:guide
       orientation="1,0"
       position="667.88821,235.16365"
       id="guide4533" />
    <sodipodi:guide
       orientation="0,1"
       position="773.13821,126.28865"
       id="guide4535" />
    <sodipodi:guide
       orientation="1,0"
       position="625.01899,225.64007"
       id="guide4537" />
    <sodipodi:guide
       orientation="0,1"
       position="174.10584,27.4292"
       id="guide4539" />
    <sodipodi:guide
       orientation="0,1"
       position="545,22.75"
       id="guide4782" />
    <sodipodi:guide
       orientation="1,0"
       position="472.5,52"
       id="guide4784" />
    <sodipodi:guide
       orientation="1,0"
       position="703.25,52.75"
       id="guide4790" />
  </sodipodi:namedview>
  <defs
     id="defs1835">
    <linearGradient
       id="linearGradient3117">
      <stop
         style="stop-color:#000000;stop-opacity:0"
         offset="0"
         id="stop3131" />
      <stop
         style="stop-color:#000000;stop-opacity:0.16494845"
         offset="1"
         id="stop3121" />
    </linearGradient>
    <linearGradient
       x1="233.35068"
       y1="303.90625"
       x2="315.43057"
       y2="303.90625"
       id="linearGradient3123"
       xlink:href="#linearGradient3117"
       gradientUnits="userSpaceOnUse" />
    <linearGradient
       id="linearGradient15296">
      <stop
         style="stop-color:#ff5959;stop-opacity:1"
         offset="0"
         id="stop15298" />
      <stop
         style="stop-color:#df0000;stop-opacity:1"
         offset="1"
         id="stop15300" />
    </linearGradient>
    <linearGradient
       id="linearGradient17969">
      <stop
         style="stop-color:#ffb73d;stop-opacity:1"
         offset="0"
         id="stop17971" />
      <stop
         style="stop-color:#ffa000;stop-opacity:1"
         offset="1"
         id="stop17973" />
    </linearGradient>
    <linearGradient
       id="linearGradient18870">
      <stop
         style="stop-color:#fff18d;stop-opacity:1"
         offset="0"
         id="stop18872" />
      <stop
         style="stop-color:#ffcd01;stop-opacity:1"
         offset="1"
         id="stop18874" />
    </linearGradient>
    <linearGradient
       id="linearGradient23319">
      <stop
         style="stop-color:#ffffff;stop-opacity:1"
         offset="0"
         id="stop23321" />
      <stop
         style="stop-color:#ffffff;stop-opacity:0"
         offset="1"
         id="stop23323" />
    </linearGradient>
    <linearGradient
       id="linearGradient20648">
      <stop
         style="stop-color:#00a000;stop-opacity:0.25892857"
         offset="0"
         id="stop20650" />
      <stop
         style="stop-color:#008000;stop-opacity:1"
         offset="1"
         id="stop20652" />
    </linearGradient>
    <linearGradient
       id="linearGradient21541">
      <stop
         style="stop-color:#263cce;stop-opacity:1"
         offset="0"
         id="stop21543" />
      <stop
         style="stop-color:#263cce;stop-opacity:0"
         offset="1"
         id="stop21545" />
    </linearGradient>
    <linearGradient
       id="linearGradient25099">
      <stop
         style="stop-color:#652f99;stop-opacity:1"
         offset="0"
         id="stop25101" />
      <stop
         style="stop-color:#502679;stop-opacity:0.65178573"
         offset="1"
         id="stop25103" />
    </linearGradient>
    <linearGradient
       x1="89"
       y1="118"
       x2="126"
       y2="155"
       id="linearGradient3400"
       xlink:href="#linearGradient15296"
       gradientUnits="userSpaceOnUse" />
    <linearGradient
       x1="89.626488"
       y1="191.40311"
       x2="126.02959"
       y2="155"
       id="linearGradient3402"
       xlink:href="#linearGradient17969"
       gradientUnits="userSpaceOnUse" />
    <linearGradient
       x1="157.68582"
       y1="186.68582"
       x2="126"
       y2="155"
       id="linearGradient3404"
       xlink:href="#linearGradient18870"
       gradientUnits="userSpaceOnUse" />
    <linearGradient
       x1="149.80643"
       y1="178.80643"
       x2="92.016411"
       y2="121.01641"
       id="linearGradient3406"
       xlink:href="#linearGradient23319"
       gradientUnits="userSpaceOnUse" />
    <linearGradient
       x1="91.149223"
       y1="189.85078"
       x2="126"
       y2="155"
       id="linearGradient3408"
       xlink:href="#linearGradient20648"
       gradientUnits="userSpaceOnUse" />
    <linearGradient
       x1="89"
       y1="155"
       x2="163"
       y2="155"
       id="linearGradient3410"
       xlink:href="#linearGradient21541"
       gradientUnits="userSpaceOnUse" />
    <linearGradient
       x1="126"
       y1="155"
       x2="57.340927"
       y2="115.35966"
       id="linearGradient3412"
       xlink:href="#linearGradient25099"
       gradientUnits="userSpaceOnUse" />
  </defs>
  <g
     id="g3124">
    <g
       id="g3110">
      <g
         id="g4652">
        <rect
           y="12.275468"
           x="12.275756"
           height="327.45181"
           width="975.45135"
           id="rect3067-9"
           style="fill:#000000;fill-opacity:1;fill-rule:nonzero;stroke:#000000;stroke-width:24.54665947;stroke-linecap:butt;stroke-linejoin:round;stroke-miterlimit:0;stroke-opacity:1;stroke-dasharray:none" />
        <g
           id="g4648">
          <rect
             style="fill:#aab2ab;fill-opacity:1;fill-rule:nonzero;stroke:#aab2ab;stroke-width:19.98423576;stroke-linecap:butt;stroke-linejoin:round;stroke-miterlimit:0;stroke-opacity:1;stroke-dasharray:none"
             id="rect3067"
             width="963.75018"
             height="219.67412"
             x="18.250061"
             y="18.234087" />
          <path
             inkscape:connector-curvature="0"
             style="fill:#aab2ab;fill-opacity:1;fill-rule:nonzero;stroke:none"
             d="m 8.25,26.96875 0,220.9375 36.09375,0 c 25.215367,45.70312 73.86087,76.65625 129.75,76.65625 55.88913,0 104.56588,-30.95313 129.78125,-76.65625 l 688.125,0 0,-220.9375 -983.75,0 z"
             id="rect3067-5" />
        </g>
      </g>
      <g
         id="g4669">
        <path
           transform="matrix(1.759821,0,0,1.759821,-111.80671,634.61095)"
           d="m 415,-289.01349 a 51.5,51.5 0 1 1 -103,0 51.5,51.5 0 1 1 103,0 z"
           sodipodi:ry="51.5"
           sodipodi:rx="51.5"
           sodipodi:cy="-289.01349"
           sodipodi:cx="363.5"
           id="path4543"
           style="fill:#ffffff;fill-opacity:1;fill-rule:nonzero;stroke:none"
           sodipodi:type="arc" />
        <g
           transform="matrix(3.0675612,0,0,3.0674173,428.69507,28.882713)"
           style="display:inline"
           id="layer3">
          <path
             d="M 31.1875,0 C 13.904525,0.43835438 0,14.612004 0,32 0,49.663996 14.336004,64 32,64 49.663996,64 64,49.663996 64,32 64,14.336004 49.663996,0 32,0 31.724,0 31.461833,-0.00695801 31.1875,0 z M 31.15625,5.5 C 31.439783,5.49101 31.714297,5.5 32,5.5 46.628003,5.4999998 58.5,17.371998 58.5,32 58.499998,46.628001 46.628002,58.5 32,58.5 17.371999,58.499999 5.5,46.628002 5.5,32 5.4999999,17.657701 16.922915,5.9512829 31.15625,5.5 z"
             style="fill:#000000;fill-opacity:1;fill-rule:nonzero;stroke:none"
             id="path3742"
             inkscape:connector-curvature="0" />
          <g
             id="g6525">
            <path
               d="m 36.6875,15.75 c 0,2.554317 -2.070683,4.625 -4.625,4.625 -2.554317,0 -4.625,-2.070683 -4.625,-4.625 0,-2.554317 2.070683,-4.625 4.625,-4.625 2.554317,0 4.625,2.070683 4.625,4.625 l 0,0 z"
               transform="translate(-0.0625,0.185547)"
               style="fill:#000000;fill-opacity:1;fill-rule:evenodd;stroke:none"
               id="path2838"
               inkscape:connector-curvature="0" />
            <path
               d="m 27.215125,52.689453 9.56975,0 0,-15.378905 2.893008,0 c 0,0 -0.0011,-10.990367 0,-12.720111 -0.0028,-0.456306 0.04119,-1.365057 -0.620739,-2.026989 -0.661932,-0.661932 -1.555399,-0.621804 -2.02699,-0.620739 -0.47159,0.0011 -9.588717,0.0011 -10.060308,0 -0.471591,-0.0011 -1.365057,-0.04119 -2.026989,0.620739 -0.661933,0.661932 -0.617898,1.570683 -0.620739,2.026989 0.0011,1.729744 0,12.720111 0,12.720111 l 2.893007,0 0,15.378905 z"
               style="fill:#000000;fill-opacity:1;fill-rule:evenodd;stroke:none"
               id="path3746"
               inkscape:connector-curvature="0" />
          </g>
        </g>
      </g>
    </g>
    <g
       id="g3082">
      <path
         sodipodi:type="arc"
         style="fill:#ffffff;fill-opacity:1;fill-rule:nonzero;stroke:none"
         id="path3055"
         sodipodi:cx="168.18016"
         sodipodi:cy="154.12193"
         sodipodi:rx="125.75375"
         sodipodi:ry="125.75375"
         d="m 293.93391,154.12193 a 125.75375,125.75375 0 1 1 -251.507503,0 125.75375,125.75375 0 1 1 251.507503,0 z"
         transform="matrix(0.96063937,0,0,0.96063937,12.276532,15.965832)" />
      <g
         id="g3561"
         transform="matrix(4.0750084,0,0,4.0694718,44.767949,34.834713)">
        <g
           id="Background" />
        <g
           id="Guides" />
        <g
           id="Foreground">
          <g
             id="g3566">
            <path
               inkscape:connector-curvature="0"
               id="path3568"
               style="fill-rule:evenodd"
               d="M 31.603,0 C 22.92,0 15.28,3.213 9.376,9.203 3.299,15.368 0,23.355 0,31.69 c 0,8.421 3.212,16.235 9.29,22.312 6.078,6.078 13.978,9.376 22.313,9.376 8.334,0 16.409,-3.299 22.66,-9.463 5.904,-5.817 9.029,-13.544 9.029,-22.226 0,-8.595 -3.125,-16.409 -9.116,-22.4 C 48.098,3.213 40.285,0 31.603,0 z m 0.086,5.73 c 7.12,0 13.458,2.691 18.406,7.64 4.862,4.862 7.466,11.287 7.466,18.319 0,7.119 -2.518,13.37 -7.379,18.146 -5.123,5.036 -11.721,7.727 -18.493,7.727 -6.858,0 -13.283,-2.691 -18.232,-7.64 C 8.508,44.973 5.73,38.462 5.73,31.69 5.73,24.831 8.508,18.32 13.457,13.284 18.319,8.335 24.57,5.73 31.689,5.73 z" />
            <path
               inkscape:connector-curvature="0"
               id="path3570"
               style="fill-rule:evenodd"
               d="m 31.281,26.424 c -1.79,-3.264 -4.844,-4.563 -8.389,-4.563 -5.16,0 -9.267,3.65 -9.267,9.829 0,6.283 3.861,9.829 9.442,9.829 3.581,0 6.635,-1.966 8.319,-4.949 l -3.931,-2.001 c -0.878,2.106 -2.212,2.738 -3.896,2.738 -2.914,0 -4.248,-2.422 -4.248,-5.616 0,-3.194 1.124,-5.617 4.248,-5.617 0.842,0 2.527,0.457 3.51,2.562 l 4.212,-2.212 z" />
            <path
               inkscape:connector-curvature="0"
               id="path3572"
               style="fill-rule:evenodd"
               d="m 49.562,26.424 c -1.79,-3.264 -4.844,-4.563 -8.389,-4.563 -5.16,0 -9.267,3.65 -9.267,9.829 0,6.283 3.861,9.829 9.443,9.829 3.58,0 6.634,-1.966 8.319,-4.949 l -3.931,-2.001 c -0.878,2.106 -2.211,2.738 -3.896,2.738 -2.914,0 -4.248,-2.422 -4.248,-5.616 0,-3.194 1.124,-5.617 4.248,-5.617 0.842,0 2.527,0.457 3.51,2.562 l 4.211,-2.212 z" />
          </g>
        </g>
      </g>
    </g>
  </g>
  <g
     id="g4677">
    <path
       transform="matrix(1.759821,0,0,1.759821,127.19327,635.07395)"
       d="m 415,-289.01349 a 51.5,51.5 0 1 1 -103,0 51.5,51.5 0 1 1 103,0 z"
       sodipodi:ry="51.5"
       sodipodi:rx="51.5"
       sodipodi:cy="-289.01349"
       sodipodi:cx="363.5"
       id="path4543-4"
       style="fill:#ffffff;fill-opacity:1;fill-rule:nonzero;stroke:none"
       sodipodi:type="arc" />
    <g
       transform="matrix(3.0814483,0,0,3.0813038,667.81805,28.508503)"
       id="g3832">
      <path
         d="M 31.1875,0 C 13.904525,0.43835438 0,14.612004 0,32 0,49.663996 14.336004,64 32,64 49.663996,64 64,49.663996 64,32 64,14.336004 49.663996,0 32,0 31.724,0 31.461833,-0.00695801 31.1875,0 z M 31.15625,5.5 C 31.439783,5.49101 31.714297,5.5 32,5.5 46.628003,5.4999998 58.5,17.371998 58.5,32 58.499998,46.628001 46.628002,58.5 32,58.5 17.371999,58.499999 5.5,46.628002 5.5,32 5.4999999,17.657701 16.922915,5.9512829 31.15625,5.5 z"
         style="fill:#000000;fill-opacity:1;fill-rule:nonzero;stroke:none"
         id="path1334"
         inkscape:connector-curvature="0" />
      <path
         d="m 18.115779,26.784547 -2.740778,0 6.21875,6.96875 6.21875,-6.96875 -2.243852,0 c 0.486099,-3.3998 3.476871,-5.586425 6.931352,-5.3125 0.136556,0.01083 0.267854,0 0.40625,0 5.62743,0 7.84682,4.255865 8.03125,10.53125 0.19247,6.549199 -3.60349,10.620376 -8.03125,10.53125 -4.673386,-0.09221 -6.444049,-2.32751 -7.125,-5.71875 l -8.34375,0 c 1.373177,7.811231 7.123855,12.392036 15.28125,12.40625 9.23458,0.01625 15.906248,-7.709347 15.906248,-17.21875 0,-10.154893 -6.669368,-17.21875 -15.906248,-17.21875 -0.274244,0 -0.541652,-0.01489 -0.8125,0 -0.0656,0.0036 -0.12197,-0.0011 -0.1875,0 -5.772209,0.09597 -13.602929,4.139742 -13.602972,12 z"
         style="fill:#000000;fill-opacity:1;fill-rule:nonzero;stroke:none"
         id="path2371"
         inkscape:connector-curvature="0" />
    </g>
  </g>
  <text
     xml:space="preserve"
     style="font-size:76.68868256px;font-style:normal;font-weight:normal;line-height:125%;letter-spacing:0px;word-spacing:0px;fill:#ffffff;fill-opacity:1;stroke:none;font-family:Sans"
     x="467.3638"
     y="329.25058"
     id="text4786"
     sodipodi:linespacing="125%"><tspan
       sodipodi:role="line"
       id="tspan4788"
       style="font-style:normal;font-variant:normal;font-weight:bold;font-stretch:normal;font-family:Arial;-inkscape-font-specification:Arial Bold"
       x="467.3638"
       y="329.25058">BY</tspan></text>
  <text
     xml:space="preserve"
     style="font-size:78.74900055px;font-style:normal;font-weight:normal;line-height:125%;letter-spacing:0px;word-spacing:0px;fill:#000000;fill-opacity:1;stroke:none;font-family:Sans"
     x="700.534"
     y="328.25058"
     id="text4792"
     sodipodi:linespacing="125%"><tspan
       sodipodi:role="line"
       id="tspan4794"
       style="font-style:normal;font-variant:normal;font-weight:bold;font-stretch:normal;fill:#ffffff;fill-opacity:1;font-family:Arial;-inkscape-font-specification:Arial Bold"
       x="700.534"
       y="328.25058">SA</tspan></text>
</svg>
