<?xml version="1.0" encoding="UTF-8" standalone="no"?>
<svg
   xmlns:dc="http://purl.org/dc/elements/1.1/"
   xmlns:cc="http://creativecommons.org/ns#"
   xmlns:rdf="http://www.w3.org/1999/02/22-rdf-syntax-ns#"
   xmlns:svg="http://www.w3.org/2000/svg"
   xmlns="http://www.w3.org/2000/svg"
   xmlns:sodipodi="http://sodipodi.sourceforge.net/DTD/sodipodi-0.dtd"
   xmlns:inkscape="http://www.inkscape.org/namespaces/inkscape"
   viewBox="0 0 88.08594 100"
   id="svg2"
   version="1.1"
   inkscape:version="0.48.3.1 r9886"
   width="100%"
   height="100%"
   sodipodi:docname="CSS3.svg">
  <metadata
     id="metadata18">
    <rdf:RDF>
      <cc:Work
         rdf:about="">
        <dc:format>image/svg+xml</dc:format>
        <dc:type
           rdf:resource="http://purl.org/dc/dcmitype/StillImage" />
        <dc:title>HTML5 Logo Badge</dc:title>
      </cc:Work>
    </rdf:RDF>
  </metadata>
  <defs
     id="defs16" />
  <sodipodi:namedview
     pagecolor="#ffffff"
     bordercolor="#666666"
     borderopacity="1"
     objecttolerance="10"
     gridtolerance="10"
     guidetolerance="10"
     inkscape:pageopacity="0"
     inkscape:pageshadow="2"
     inkscape:window-width="1301"
     inkscape:window-height="744"
     id="namedview14"
     showgrid="false"
     inkscape:snap-global="true"
     showguides="true"
     inkscape:guide-bbox="true"
     inkscape:zoom="8"
     inkscape:cx="86.785337"
     inkscape:cy="54.231599"
     inkscape:window-x="65"
     inkscape:window-y="24"
     inkscape:window-maximized="1"
     inkscape:current-layer="svg2"
     fit-margin-top="0"
     fit-margin-left="0"
     fit-margin-right="0"
     fit-margin-bottom="0" />
  <title
     id="title4">HTML5 Logo Badge</title>
  <path
     d="M 8.007812,89.84375 0,0 88.08594,0 80.07813,89.84375 43.945312,100"
     id="path6"
     style="fill:#0170ba;fill-opacity:1"
     inkscape:connector-curvature="0" />
  <path
     d="m 44.140625,92.1875 29.101565,-8.00781 6.83594,-76.95313 -35.937505,0"
     id="path8"
     style="fill:#29a9df;fill-opacity:1"
     inkscape:connector-curvature="0" />
  <path
     style="fill:#e4e4e4;fill-opacity:1"
     d="M 16.40625 18.34375 L 16.59375 21.28125 L 17.3125 29.28125 L 28.5 29.28125 L 29.5 29.28125 L 44.125 29.28125 L 44.125 18.34375 L 43.9375 18.34375 L 16.40625 18.34375 z M 18.15625 38 L 18.6875 49.28125 L 45.5625 49.28125 L 45.65625 47.15625 L 46.125 38 L 18.15625 38 z M 19.90625 57.21875 L 21.28125 74.59375 L 43.9375 80.84375 L 44.125 80.84375 L 44.125 69.34375 L 43.9375 69.34375 L 31.625 66 L 30.84375 57.21875 L 25 57.21875 L 19.90625 57.21875 z "
     transform="translate(0,-1.4190687e-6)"
     id="path10" />
  <path
     style="fill:#ffffff"
     d="M 43.9375 18.34375 L 43.9375 25.1875 L 43.9375 29.28125 L 59.21875 29.28125 L 58.90625 33.59375 L 58.59375 38 L 43.9375 38 L 43.9375 49.28125 L 57.8125 49.28125 L 57.625 51.75 L 57.4375 53.5 L 56.25 66 L 43.9375 69.34375 L 43.9375 80.84375 L 66.59375 74.59375 L 66.78125 72.65625 L 69.34375 43.5625 L 70.71875 29.28125 L 70.90625 26.9375 L 71.5 21.28125 L 71.6875 18.34375 L 43.9375 18.34375 z "
     transform="translate(0,-1.4190687e-6)"
     id="path12" />
</svg>
