<?xml version="1.0" encoding="UTF-8" standalone="no"?>
<!-- Created with Inkscape (http://www.inkscape.org/) -->

<svg
   xmlns:i="http://ns.adobe.com/AdobeIllustrator/10.0/"
   xmlns:dc="http://purl.org/dc/elements/1.1/"
   xmlns:cc="http://creativecommons.org/ns#"
   xmlns:rdf="http://www.w3.org/1999/02/22-rdf-syntax-ns#"
   xmlns:svg="http://www.w3.org/2000/svg"
   xmlns="http://www.w3.org/2000/svg"
   xmlns:xlink="http://www.w3.org/1999/xlink"
   xmlns:sodipodi="http://sodipodi.sourceforge.net/DTD/sodipodi-0.dtd"
   xmlns:inkscape="http://www.inkscape.org/namespaces/inkscape"
   width="87.488037"
   height="100"
   id="svg2"
   sodipodi:version="0.32"
   inkscape:version="0.48.3.1 r9886"
   version="1.0"
   sodipodi:docname="drupal-logo.svg"
   inkscape:output_extension="org.inkscape.output.svg.inkscape"
   inkscape:export-filename="/home/gumara/svnByDoingDocs/oss/pr/poster-drupal-training.png"
   inkscape:export-xdpi="72"
   inkscape:export-ydpi="72">
  <defs
     id="defs4">
    <radialGradient
       r="29.891602"
       fy="471.82559"
       fx="169.70558"
       cy="471.82559"
       cx="169.70558"
       gradientTransform="matrix(8.4327771,0,0,2.2490663,-1272.4311,-948.98372)"
       gradientUnits="userSpaceOnUse"
       id="radialGradient1664"
       xlink:href="#linearGradient2774"
       inkscape:collect="always" />
    <radialGradient
       r="29.891602"
       fy="471.82559"
       fx="169.70558"
       cy="471.82559"
       cx="169.70558"
       gradientTransform="matrix(8.4327771,0,0,2.2490663,-1274.1921,-948.87509)"
       gradientUnits="userSpaceOnUse"
       id="radialGradient1662"
       xlink:href="#linearGradient2774"
       inkscape:collect="always" />
    <radialGradient
       r="7.2036505"
       fy="903.17633"
       fx="-148.71954"
       cy="903.17633"
       cx="-148.71954"
       gradientTransform="matrix(81.8991,-0.149551,0.04119244,22.14023,12331.38,-19078.39)"
       gradientUnits="userSpaceOnUse"
       id="radialGradient1660"
       xlink:href="#linearGradient2774"
       inkscape:collect="always" />
    <linearGradient
       y2="929.22638"
       x2="-158.17094"
       y1="886.26605"
       x1="-158.17094"
       gradientUnits="userSpaceOnUse"
       id="linearGradient1658"
       xlink:href="#linearGradient2832"
       inkscape:collect="always" />
    <linearGradient
       y2="963.11139"
       x2="-126.2662"
       y1="906.95013"
       x1="-126.2662"
       gradientTransform="matrix(0.5599357,0,0,0.5599357,100.9987,-416.45013)"
       gradientUnits="userSpaceOnUse"
       id="linearGradient1656"
       xlink:href="#linearGradient2832"
       inkscape:collect="always" />
    <radialGradient
       r="29.891602"
       fy="471.82559"
       fx="169.70558"
       cy="471.82559"
       cx="169.70558"
       gradientTransform="matrix(4.766407,0,0,1.271226,-700.1401,-549.5051)"
       gradientUnits="userSpaceOnUse"
       id="radialGradient1557"
       xlink:href="#linearGradient2774"
       inkscape:collect="always" />
    <radialGradient
       r="29.891602"
       fy="471.82559"
       fx="169.70558"
       cy="471.82559"
       cx="169.70558"
       gradientTransform="matrix(4.766407,0,0,1.271226,-701.1355,-549.4437)"
       gradientUnits="userSpaceOnUse"
       id="radialGradient1554"
       xlink:href="#linearGradient2774"
       inkscape:collect="always" />
    <linearGradient
       y2="929.22638"
       x2="-158.17094"
       y1="886.26605"
       x1="-158.17094"
       gradientUnits="userSpaceOnUse"
       id="linearGradient1549"
       xlink:href="#linearGradient2832"
       inkscape:collect="always" />
    <radialGradient
       r="7.2036505"
       fy="903.17633"
       fx="-148.71954"
       cy="903.17633"
       cx="-148.71954"
       gradientTransform="matrix(81.8991,-0.149551,0.04119244,22.14023,12331.38,-19078.39)"
       gradientUnits="userSpaceOnUse"
       id="radialGradient1547"
       xlink:href="#linearGradient2774"
       inkscape:collect="always" />
    <radialGradient
       r="29.891602"
       fy="471.82559"
       fx="169.70558"
       cy="471.82559"
       cx="169.70558"
       gradientTransform="matrix(4.766407,0,0,1.271226,-701.1355,-549.4437)"
       gradientUnits="userSpaceOnUse"
       id="radialGradient1545"
       xlink:href="#linearGradient2774"
       inkscape:collect="always" />
    <radialGradient
       r="29.891602"
       fy="471.82559"
       fx="169.70558"
       cy="471.82559"
       cx="169.70558"
       gradientTransform="matrix(4.766407,0,0,1.271226,-700.1401,-549.5051)"
       gradientUnits="userSpaceOnUse"
       id="radialGradient1543"
       xlink:href="#linearGradient2774"
       inkscape:collect="always" />
    <linearGradient
       y2="963.11139"
       x2="-126.2662"
       y1="906.95013"
       x1="-126.2662"
       gradientTransform="matrix(0.316489,0,0,0.316489,76.1552,-248.5044)"
       gradientUnits="userSpaceOnUse"
       id="linearGradient1535"
       xlink:href="#linearGradient2832"
       inkscape:collect="always" />
    <radialGradient
       r="29.891602"
       fy="471.82559"
       fx="169.70558"
       cy="471.82559"
       cx="169.70558"
       gradientTransform="matrix(4.766407,0,0,1.271226,-700.1401,-549.5051)"
       gradientUnits="userSpaceOnUse"
       id="radialGradient1500"
       xlink:href="#linearGradient2774"
       inkscape:collect="always" />
    <radialGradient
       r="29.891602"
       fy="471.82559"
       fx="169.70558"
       cy="471.82559"
       cx="169.70558"
       gradientTransform="matrix(4.766407,0,0,1.271226,-701.1355,-549.4437)"
       gradientUnits="userSpaceOnUse"
       id="radialGradient1497"
       xlink:href="#linearGradient2774"
       inkscape:collect="always" />
    <linearGradient
       y2="963.11139"
       x2="-126.2662"
       y1="906.95013"
       x1="-126.2662"
       gradientTransform="matrix(0.316489,0,0,0.316489,76.1552,-248.5044)"
       gradientUnits="userSpaceOnUse"
       id="linearGradient1492"
       xlink:href="#linearGradient2832"
       inkscape:collect="always" />
    <linearGradient
       y2="929.22638"
       x2="-158.17094"
       y1="886.26605"
       x1="-158.17094"
       gradientUnits="userSpaceOnUse"
       id="linearGradient1487"
       xlink:href="#linearGradient2832"
       inkscape:collect="always" />
    <radialGradient
       r="7.2036505"
       fy="903.17633"
       fx="-148.71954"
       cy="903.17633"
       cx="-148.71954"
       gradientTransform="matrix(81.8991,-0.149551,0.04119244,22.14023,12331.38,-19078.39)"
       gradientUnits="userSpaceOnUse"
       id="radialGradient1485"
       xlink:href="#linearGradient2774"
       inkscape:collect="always" />
    <radialGradient
       r="29.891602"
       fy="471.82559"
       fx="169.70558"
       cy="471.82559"
       cx="169.70558"
       gradientTransform="matrix(4.766407,0,0,1.271226,-982.3481,-267.0577)"
       gradientUnits="userSpaceOnUse"
       id="radialGradient3580"
       xlink:href="#linearGradient2774"
       inkscape:collect="always" />
    <radialGradient
       r="29.891602"
       fy="471.82559"
       fx="169.70558"
       cy="471.82559"
       cx="169.70558"
       gradientTransform="matrix(4.766407,0,0,1.271226,-983.3435,-266.9963)"
       gradientUnits="userSpaceOnUse"
       id="radialGradient3577"
       xlink:href="#linearGradient2774"
       inkscape:collect="always" />
    <linearGradient
       y2="963.11139"
       x2="-126.2662"
       y1="906.95013"
       x1="-126.2662"
       gradientTransform="matrix(0.316489,0,0,0.316489,-206.0528,33.94294)"
       gradientUnits="userSpaceOnUse"
       id="linearGradient3572"
       xlink:href="#linearGradient2832"
       inkscape:collect="always" />
    <linearGradient
       y2="963.11139"
       x2="-126.2662"
       y1="906.95013"
       x1="-126.2662"
       gradientTransform="translate(1355.061,-1057.909)"
       gradientUnits="userSpaceOnUse"
       id="linearGradient3569"
       xlink:href="#linearGradient2832"
       inkscape:collect="always" />
    <linearGradient
       y2="929.22638"
       x2="-158.17094"
       y1="886.26605"
       x1="-158.17094"
       gradientUnits="userSpaceOnUse"
       id="linearGradient3567"
       xlink:href="#linearGradient2832"
       inkscape:collect="always" />
    <radialGradient
       r="7.2036505"
       fy="903.17633"
       fx="-148.71954"
       cy="903.17633"
       cx="-148.71954"
       gradientTransform="matrix(81.8991,-0.149551,0.04119244,22.14023,12331.38,-19078.39)"
       gradientUnits="userSpaceOnUse"
       id="radialGradient3565"
       xlink:href="#linearGradient2774"
       inkscape:collect="always" />
    <radialGradient
       r="29.891602"
       fy="471.82559"
       fx="169.70558"
       cy="471.82559"
       cx="169.70558"
       gradientTransform="matrix(15.06026,0,0,4.016652,-1100.919,-2008.777)"
       gradientUnits="userSpaceOnUse"
       id="radialGradient3563"
       xlink:href="#linearGradient2774"
       inkscape:collect="always" />
    <radialGradient
       r="29.891602"
       fy="471.82559"
       fx="169.70558"
       cy="471.82559"
       cx="169.70558"
       gradientTransform="matrix(15.06026,0,0,4.016652,-1097.774,-2008.971)"
       gradientUnits="userSpaceOnUse"
       id="radialGradient3561"
       xlink:href="#linearGradient2774"
       inkscape:collect="always" />
    <radialGradient
       r="29.891602"
       fy="471.82559"
       fx="169.70558"
       cy="471.82559"
       cx="169.70558"
       gradientTransform="matrix(4.766407,0,0,1.271226,-701.9501,-296.3903)"
       gradientUnits="userSpaceOnUse"
       id="radialGradient3517"
       xlink:href="#linearGradient2774"
       inkscape:collect="always" />
    <radialGradient
       r="29.891602"
       fy="471.82559"
       fx="169.70558"
       cy="471.82559"
       cx="169.70558"
       gradientTransform="matrix(4.766407,0,0,1.271226,-702.9455,-296.3289)"
       gradientUnits="userSpaceOnUse"
       id="radialGradient3514"
       xlink:href="#linearGradient2774"
       inkscape:collect="always" />
    <linearGradient
       y2="963.11139"
       x2="-126.2662"
       y1="906.95013"
       x1="-126.2662"
       gradientTransform="matrix(0.316489,0,0,0.316489,74.3452,4.610338)"
       gradientUnits="userSpaceOnUse"
       id="linearGradient3509"
       xlink:href="#linearGradient2832"
       inkscape:collect="always" />
    <linearGradient
       y2="929.22638"
       x2="-158.17094"
       y1="886.26605"
       x1="-158.17094"
       gradientUnits="userSpaceOnUse"
       id="linearGradient3504"
       xlink:href="#linearGradient2832"
       inkscape:collect="always" />
    <radialGradient
       r="7.2036505"
       fy="903.17633"
       fx="-148.71954"
       cy="903.17633"
       cx="-148.71954"
       gradientTransform="matrix(81.8991,-0.149551,0.04119244,22.14023,12331.38,-19078.39)"
       gradientUnits="userSpaceOnUse"
       id="radialGradient3502"
       xlink:href="#linearGradient2774"
       inkscape:collect="always" />
    <linearGradient
       y2="963.11139"
       x2="-126.2662"
       y1="906.95013"
       x1="-126.2662"
       gradientTransform="translate(1355.061,-1057.909)"
       gradientUnits="userSpaceOnUse"
       id="linearGradient3410"
       xlink:href="#linearGradient2832"
       inkscape:collect="always" />
    <linearGradient
       y2="929.22638"
       x2="-158.17094"
       y1="886.26605"
       x1="-158.17094"
       gradientUnits="userSpaceOnUse"
       id="linearGradient3408"
       xlink:href="#linearGradient2832"
       inkscape:collect="always" />
    <radialGradient
       r="7.2036505"
       fy="903.17633"
       fx="-148.71954"
       cy="903.17633"
       cx="-148.71954"
       gradientTransform="matrix(81.8991,-0.149551,0.04119244,22.14023,12331.38,-19078.39)"
       gradientUnits="userSpaceOnUse"
       id="radialGradient3406"
       xlink:href="#linearGradient2774"
       inkscape:collect="always" />
    <radialGradient
       r="29.891602"
       fy="471.82559"
       fx="169.70558"
       cy="471.82559"
       cx="169.70558"
       gradientTransform="matrix(15.06026,0,0,4.016652,-1100.919,-2008.777)"
       gradientUnits="userSpaceOnUse"
       id="radialGradient3404"
       xlink:href="#linearGradient2774"
       inkscape:collect="always" />
    <radialGradient
       r="29.891602"
       fy="471.82559"
       fx="169.70558"
       cy="471.82559"
       cx="169.70558"
       gradientTransform="matrix(15.06026,0,0,4.016652,-1097.774,-2008.971)"
       gradientUnits="userSpaceOnUse"
       id="radialGradient3402"
       xlink:href="#linearGradient2774"
       inkscape:collect="always" />
    <linearGradient
       y2="963.11139"
       x2="-126.2662"
       y1="906.95013"
       x1="-126.2662"
       gradientTransform="translate(1355.061,-1057.909)"
       gradientUnits="userSpaceOnUse"
       id="linearGradient1572"
       xlink:href="#linearGradient2832"
       inkscape:collect="always" />
    <linearGradient
       y2="929.22638"
       x2="-158.17094"
       y1="886.26605"
       x1="-158.17094"
       gradientUnits="userSpaceOnUse"
       id="linearGradient1570"
       xlink:href="#linearGradient2832"
       inkscape:collect="always" />
    <radialGradient
       r="7.2036505"
       fy="903.17633"
       fx="-148.71954"
       cy="903.17633"
       cx="-148.71954"
       gradientTransform="matrix(81.8991,-0.149551,0.04119244,22.14023,12331.38,-19078.39)"
       gradientUnits="userSpaceOnUse"
       id="radialGradient1568"
       xlink:href="#linearGradient2774"
       inkscape:collect="always" />
    <radialGradient
       r="29.891602"
       fy="471.82559"
       fx="169.70558"
       cy="471.82559"
       cx="169.70558"
       gradientTransform="matrix(15.06026,0,0,4.016652,-1100.919,-2008.777)"
       gradientUnits="userSpaceOnUse"
       id="radialGradient1566"
       xlink:href="#linearGradient2774"
       inkscape:collect="always" />
    <radialGradient
       r="29.891602"
       fy="471.82559"
       fx="169.70558"
       cy="471.82559"
       cx="169.70558"
       gradientTransform="matrix(15.06026,0,0,4.016652,-1097.774,-2008.971)"
       gradientUnits="userSpaceOnUse"
       id="radialGradient1564"
       xlink:href="#linearGradient2774"
       inkscape:collect="always" />
    <radialGradient
       r="29.891602"
       fy="471.82559"
       fx="169.70558"
       cy="471.82559"
       cx="169.70558"
       gradientTransform="matrix(24.59853,0,0,6.560561,-2668.737,-2928.214)"
       gradientUnits="userSpaceOnUse"
       id="radialGradient1536"
       xlink:href="#linearGradient2774"
       inkscape:collect="always" />
    <radialGradient
       r="29.891602"
       fy="471.82559"
       fx="169.70558"
       cy="471.82559"
       cx="169.70558"
       gradientTransform="matrix(15.06026,0,0,4.016652,-238.17,-2359.702)"
       gradientUnits="userSpaceOnUse"
       id="radialGradient1530"
       xlink:href="#linearGradient2774"
       inkscape:collect="always" />
    <radialGradient
       r="29.891602"
       fy="471.82559"
       fx="169.70558"
       cy="471.82559"
       cx="169.70558"
       gradientTransform="matrix(15.06026,0,0,4.016652,-238.232,-2151.529)"
       gradientUnits="userSpaceOnUse"
       id="radialGradient1522"
       xlink:href="#linearGradient2774"
       inkscape:collect="always" />
    <radialGradient
       r="29.891602"
       fy="471.82559"
       fx="169.70558"
       cy="471.82559"
       cx="169.70558"
       gradientTransform="matrix(15.06026,0,0,4.016652,-1105.806,-2244.483)"
       gradientUnits="userSpaceOnUse"
       id="radialGradient1516"
       xlink:href="#linearGradient2774"
       inkscape:collect="always" />
    <radialGradient
       r="29.891602"
       fy="471.82559"
       fx="169.70558"
       cy="471.82559"
       cx="169.70558"
       gradientTransform="matrix(15.06026,0,0,4.016652,-1108.951,-2244.289)"
       gradientUnits="userSpaceOnUse"
       id="radialGradient1512"
       xlink:href="#linearGradient2774"
       inkscape:collect="always" />
    <linearGradient
       y2="963.11139"
       x2="-126.2662"
       y1="906.95013"
       x1="-126.2662"
       gradientTransform="translate(1347.029,-1293.422)"
       gradientUnits="userSpaceOnUse"
       id="linearGradient1507"
       xlink:href="#linearGradient2832"
       inkscape:collect="always" />
    <radialGradient
       r="29.891602"
       fy="471.82559"
       fx="169.70558"
       cy="471.82559"
       cx="169.70558"
       gradientTransform="matrix(15.06026,0,0,4.016652,-1118.971,-1737.531)"
       gradientUnits="userSpaceOnUse"
       id="radialGradient1502"
       xlink:href="#linearGradient2774"
       inkscape:collect="always" />
    <linearGradient
       y2="963.11139"
       x2="-126.2662"
       y1="906.95013"
       x1="-126.2662"
       gradientTransform="matrix(1.633341,0,0,1.633341,1342.717,-1375.125)"
       gradientUnits="userSpaceOnUse"
       id="linearGradient1496"
       xlink:href="#linearGradient2832"
       inkscape:collect="always" />
    <radialGradient
       r="29.891602"
       fy="471.82559"
       fx="169.70558"
       cy="471.82559"
       cx="169.70558"
       gradientTransform="matrix(15.06026,0,0,4.016652,-1097.774,-2008.971)"
       gradientUnits="userSpaceOnUse"
       id="radialGradient1491"
       xlink:href="#linearGradient2774"
       inkscape:collect="always" />
    <radialGradient
       r="29.891602"
       fy="471.82559"
       fx="169.70558"
       cy="471.82559"
       cx="169.70558"
       gradientTransform="matrix(15.06026,0,0,4.016652,-1100.919,-2008.777)"
       gradientUnits="userSpaceOnUse"
       id="radialGradient1488"
       xlink:href="#linearGradient2774"
       inkscape:collect="always" />
    <linearGradient
       y2="963.11139"
       x2="-126.2662"
       y1="906.95013"
       x1="-126.2662"
       gradientTransform="translate(1355.061,-1057.909)"
       gradientUnits="userSpaceOnUse"
       id="linearGradient1483"
       xlink:href="#linearGradient2832"
       inkscape:collect="always" />
    <linearGradient
       id="linearGradient2863">
      <stop
         id="stop2865"
         offset="0"
         style="stop-color:#4a9fe0;stop-opacity:1;" />
      <stop
         style="stop-color:#4a9fe0;stop-opacity:1;"
         offset="0.25"
         id="stop2867" />
      <stop
         id="stop2869"
         offset="0.4375"
         style="stop-color:#4a9fe0;stop-opacity:1;" />
      <stop
         style="stop-color:#4a9fe0;stop-opacity:1;"
         offset="0.53125"
         id="stop2871" />
      <stop
         id="stop2873"
         offset="0.578125"
         style="stop-color:#4a9fe0;stop-opacity:1;" />
      <stop
         style="stop-color:#4a9fe0;stop-opacity:1;"
         offset="0.6015625"
         id="stop2875" />
      <stop
         id="stop2877"
         offset="0.61328125"
         style="stop-color:#4a9fe0;stop-opacity:1;" />
      <stop
         id="stop2879"
         offset="0.625"
         style="stop-color:#4a9fe0;stop-opacity:0;" />
      <stop
         style="stop-color:#4a9fe0;stop-opacity:0;"
         offset="0.8125"
         id="stop2881" />
      <stop
         id="stop2883"
         offset="0.90625"
         style="stop-color:#4a9fe0;stop-opacity:0;" />
      <stop
         style="stop-color:#4a9fe0;stop-opacity:0;"
         offset="1"
         id="stop2885" />
    </linearGradient>
    <linearGradient
       id="linearGradient2832">
      <stop
         id="stop2853"
         offset="0"
         style="stop-color:#4a9fe0;stop-opacity:1;" />
      <stop
         style="stop-color:#4a9fe0;stop-opacity:0;"
         offset="1"
         id="stop2855" />
    </linearGradient>
    <linearGradient
       id="linearGradient2774">
      <stop
         style="stop-color:#4a9fe0;stop-opacity:1;"
         offset="0"
         id="stop2808" />
      <stop
         id="stop2812"
         offset="0.25"
         style="stop-color:#4a9fe0;stop-opacity:1;" />
      <stop
         style="stop-color:#4a9fe0;stop-opacity:1;"
         offset="0.4375"
         id="stop2850" />
      <stop
         id="stop2852"
         offset="0.53125"
         style="stop-color:#4a9fe0;stop-opacity:1;" />
      <stop
         style="stop-color:#4a9fe0;stop-opacity:1;"
         offset="0.578125"
         id="stop2854" />
      <stop
         id="stop2856"
         offset="0.6015625"
         style="stop-color:#4a9fe0;stop-opacity:1;" />
      <stop
         style="stop-color:#4a9fe0;stop-opacity:1;"
         offset="0.61328125"
         id="stop2858" />
      <stop
         style="stop-color:#4a9fe0;stop-opacity:0;"
         offset="0.625"
         id="stop2844" />
      <stop
         id="stop2846"
         offset="0.8125"
         style="stop-color:#4a9fe0;stop-opacity:0;" />
      <stop
         style="stop-color:#4a9fe0;stop-opacity:0;"
         offset="0.90625"
         id="stop2848" />
      <stop
         id="stop2816"
         offset="1"
         style="stop-color:#4a9fe0;stop-opacity:0;" />
    </linearGradient>
    <radialGradient
       inkscape:collect="always"
       xlink:href="#linearGradient2774"
       id="radialGradient2786"
       cx="169.70558"
       cy="471.82559"
       fx="169.70558"
       fy="471.82559"
       r="29.891602"
       gradientTransform="matrix(15.06026,0,0,4.016652,-2206.375,-1332.44)"
       gradientUnits="userSpaceOnUse" />
    <radialGradient
       inkscape:collect="always"
       xlink:href="#linearGradient2774"
       id="radialGradient2893"
       gradientUnits="userSpaceOnUse"
       gradientTransform="matrix(81.8991,-0.149551,0.04119244,22.14023,12331.38,-19078.39)"
       cx="-148.71954"
       cy="903.17633"
       fx="-148.71954"
       fy="903.17633"
       r="7.2036505" />
    <linearGradient
       inkscape:collect="always"
       xlink:href="#linearGradient2832"
       id="linearGradient2895"
       gradientUnits="userSpaceOnUse"
       x1="-158.17094"
       y1="886.26605"
       x2="-158.17094"
       y2="929.22638" />
    <radialGradient
       inkscape:collect="always"
       xlink:href="#linearGradient2774"
       id="radialGradient1387"
       gradientUnits="userSpaceOnUse"
       gradientTransform="matrix(81.8991,-0.149551,0.04119244,22.14023,12331.38,-19078.39)"
       cx="-148.71954"
       cy="903.17633"
       fx="-148.71954"
       fy="903.17633"
       r="7.2036505" />
    <linearGradient
       inkscape:collect="always"
       xlink:href="#linearGradient2832"
       id="linearGradient1389"
       gradientUnits="userSpaceOnUse"
       x1="-158.17094"
       y1="886.26605"
       x2="-158.17094"
       y2="929.22638" />
    <radialGradient
       inkscape:collect="always"
       xlink:href="#linearGradient2774"
       id="radialGradient2298"
       gradientUnits="userSpaceOnUse"
       gradientTransform="matrix(81.8991,-0.149551,0.04119244,22.14023,12331.38,-19078.39)"
       cx="-148.71954"
       cy="903.17633"
       fx="-148.71954"
       fy="903.17633"
       r="7.2036505" />
    <linearGradient
       inkscape:collect="always"
       xlink:href="#linearGradient2832"
       id="linearGradient2300"
       gradientUnits="userSpaceOnUse"
       x1="-158.17094"
       y1="886.26605"
       x2="-158.17094"
       y2="929.22638" />
  </defs>
  <sodipodi:namedview
     id="base"
     pagecolor="#ffffff"
     bordercolor="#666666"
     borderopacity="1.0"
     gridtolerance="10000"
     guidetolerance="10"
     objecttolerance="10"
     inkscape:pageopacity="0.0"
     inkscape:pageshadow="2"
     inkscape:zoom="5.6"
     inkscape:cx="59.919635"
     inkscape:cy="42.372807"
     inkscape:document-units="px"
     inkscape:current-layer="layer1"
     width="1488.189px"
     height="1052.3622px"
     inkscape:window-width="1375"
     inkscape:window-height="876"
     inkscape:window-x="1089"
     inkscape:window-y="24"
     showguides="true"
     inkscape:guide-bbox="true"
     showgrid="false"
     fit-margin-top="0"
     fit-margin-left="0"
     fit-margin-right="0"
     fit-margin-bottom="0"
     inkscape:window-maximized="1" />
  <metadata
     id="metadata7">
    <rdf:RDF>
      <cc:Work
         rdf:about="">
        <dc:format>image/svg+xml</dc:format>
        <dc:type
           rdf:resource="http://purl.org/dc/dcmitype/StillImage" />
        <dc:title></dc:title>
      </cc:Work>
    </rdf:RDF>
  </metadata>
  <g
     inkscape:label="Layer 1"
     inkscape:groupmode="layer"
     id="layer1"
     transform="translate(-345.63666,-938.56656)">
    <g
       i:rgbTrio="#4F008000FFFF"
       i:dimmedPercent="50"
       i:layer="yes"
       id="Layer_1"
       transform="matrix(0.12843846,0,0,0.12843846,345.63666,938.56656)">
      <path
         id="path2165"
         d="m 510.167,144.833 c -39.75,-24.75 -77.25,-34.5 -114.75,-59.25 -23.25,-15.75 -55.5,-53.25 -82.5,-85.5 -5.25,51.75 -21,72.75 -39,87.75 -38.25,30 -62.25,39 -95.25,57 -27.75,14.25 -178.5,104.25 -178.5,297.75 0,193.5 162.75,336 343.5,336 180.75,0 337.5,-131.25 337.5,-330 0,-198.75 -147,-288.75 -171,-303.75 z"
         i:knockout="Off"
         style="fill:#00598e"
         inkscape:connector-curvature="0" />
      <path
         id="path2167"
         d="m 449.25,610.5 c 12,0 24.75,0.75 33.75,6.75 9,6 14.25,19.5 17.25,27 3,7.5 0,12 -6,15 -5.25,3 -6,1.5 -11.25,-8.25 -5.25,-9.75 -9.75,-19.5 -36,-19.5 -26.25,0 -34.5,9 -47.25,19.5 -12.75,10.5 -17.25,14.25 -21.75,8.25 -4.5,-6 -3,-12 5.25,-19.5 8.25,-7.5 21.75,-19.5 34.5,-24.75 12.75,-5.25 19.5,-4.5 31.5,-4.5 l 0,0 z"
         i:knockout="Off"
         style="fill:#ffffff"
         inkscape:connector-curvature="0" />
      <path
         id="path2169"
         d="m 324.75,696 c 15,12 37.5,21.75 85.5,21.75 48,0 81.75,-13.5 96.75,-24.75 6.75,-5.25 9.75,-0.75 10.5,2.25 0.75,3 2.25,7.5 -3,12.75 -3.75,3.75 -38.25,27.75 -78.75,31.5 -40.5,3.75 -95.25,6 -128.25,-24 -5.25,-5.25 -3.75,-12.75 0,-15.75 3.75,-3 6.75,-5.25 11.25,-5.25 4.5,0 3.75,0 6,1.5 l 0,0 z"
         i:knockout="Off"
         style="fill:#ffffff"
         inkscape:connector-curvature="0" />
      <path
         id="path2171"
         d="m 141,639 c 57,-0.75 67.5,-10.5 117.75,-33 271.5,-121.5 321.75,-232.5 331.5,-258 9.75,-25.5 24,-66.75 9,-112.5 -2.896,-8.832 -5.006,-15.924 -6.53,-21.63 C 556.641,173.527 520.821,151.513 510,144.75 471,120 432.75,110.25 395.25,85.5 372,70.5 339.75,32.25 312.75,0 c -5.25,51.75 -20.25,73.5 -39,87.75 -38.25,30 -62.25,39 -95.25,57 C 150.75,159.75 0,249 0,442.5 0,504.28 16.593,560.861 45.063,609.266 L 52.5,609 c 15.75,14.25 40.5,30.75 88.5,30 z"
         i:knockout="Off"
         style="fill:#0073ba"
         inkscape:connector-curvature="0" />
      <path
         id="path2173"
         d="M 510,144.75 C 471,120 432.75,110.25 395.25,85.5 372,70.5 339.75,32.25 312.75,0 c -5.25,51.75 -20.25,73.5 -39,87.75 -38.25,30 -62.25,39 -95.25,57 C 150.75,159.75 0,249 0,442.5 0,504.28 16.593,560.861 45.063,609.266 105.763,712.467 220.46,778.5 343.5,778.5 524.25,778.5 681,647.25 681,448.5 681,339.354 636.668,263.012 592.72,213.87 556.641,173.527 520.82,151.513 510,144.75 z m 91.164,87.797 c 49.242,61.564 74.211,134.221 74.211,215.953 0,47.428 -9.033,92.23 -26.849,133.165 -16.9,38.831 -41.236,73.233 -72.333,102.254 -61.469,57.364 -144.107,88.956 -232.693,88.956 -43.826,0 -86.832,-8.371 -127.824,-24.882 C 175.413,731.776 139.129,708.555 107.833,678.974 41.923,616.678 5.625,532.696 5.625,442.5 c 0,-80.336 26.076,-151.72 77.503,-212.167 39.289,-46.18 81.655,-71.774 98.047,-80.634 7.958,-4.341 15.423,-8.172 22.643,-11.877 22.63,-11.615 44.005,-22.586 73.404,-45.645 15.677,-11.914 32.377,-30.785 39.489,-78.702 24.774,29.466 53.522,62.579 75.49,76.752 19.5,12.87 39.501,21.888 58.844,30.61 18.298,8.25 37.219,16.781 55.942,28.663 0.032,0.021 0.702,0.438 0.702,0.438 54.732,34.172 83.892,70.628 93.475,82.609 z"
         i:knockout="Off"
         style="fill:#004975"
         inkscape:connector-curvature="0" />
      <path
         id="path2175"
         d="m 316.5,15 c 10.5,30.75 9,46.5 9,53.25 0,6.75 -3.75,24.75 -15.75,33.75 -5.25,3.75 -6.75,6.75 -6.75,7.5 0,3 6.75,5.25 6.75,12 0,8.25 -3.75,24.75 -43.5,64.5 -39.75,39.75 -96.75,75 -141,96.75 C 81,304.5 60,303 54,292.5 48,282 56.25,258.75 84,228 111.75,197.25 199.5,153 199.5,153 L 309,76.5 315,47.25"
         i:knockout="Off"
         style="fill:#93c5e4"
         inkscape:connector-curvature="0" />
      <path
         id="path2177"
         d="m 316.5,14.25 c -6.75,49.5 -21.75,64.5 -42,80.25 -33.75,25.5 -66.75,41.25 -74.25,45 -19.5,9.75 -90,48.75 -126.75,105 -11.25,17.25 0,24 2.25,25.5 2.25,1.5 27.75,4.5 82.5,-28.5 54.75,-33 78.75,-52.5 109.5,-84.75 16.5,-17.25 18.75,-27 18.75,-31.5 0,-5.25 -3.75,-7.5 -9.75,-9 -3,-0.75 -3.75,-2.25 0,-4.5 C 280.5,109.5 296.25,102 300,99 c 3.75,-3 21.75,-15 22.5,-34.5 0.75,-19.5 -0.75,-33 -6,-50.25 l 0,0 z"
         i:knockout="Off"
         style="fill:#ffffff"
         inkscape:connector-curvature="0" />
      <path
         id="path2179"
         d="m 147.75,559.5 c 0.75,-58.5 55.5,-113.25 124.5,-114 87.75,-0.75 148.5,87 192.75,86.25 37.5,-0.75 109.5,-74.25 144.75,-74.25 37.5,0 48,39 48,62.25 0,23.25 -7.5,65.25 -25.5,91.5 -18,26.25 -29.25,36 -50.25,34.5 C 555,643.5 501,559.5 466.5,558 c -43.5,-1.5 -138,90.75 -212.25,90.75 -45,0 -58.5,-6.75 -73.5,-16.5 -22.5,-15.75 -33.75,-39.75 -33,-72.75 l 0,0 z"
         i:knockout="Off"
         style="fill:#ffffff"
         inkscape:connector-curvature="0" />
      <path
         id="path2181"
         d="m 599.25,235.5 c 15,45.75 0.75,87 -9,112.5 -9.75,25.5 -60,136.5 -331.5,258 C 208.5,628.5 198,638.25 141,639 93,639.75 68.25,623.25 52.5,609 l -7.437,0.266 C 105.763,712.467 220.46,778.5 343.5,778.5 524.25,778.5 681,647.25 681,448.5 681,339.354 636.668,263.012 592.72,213.87 c 1.524,5.706 3.634,12.798 6.53,21.63 z"
         i:knockout="Off"
         style="fill:none"
         inkscape:connector-curvature="0" />
    </g>
  </g>
</svg>
