<?xml version="1.0" encoding="UTF-8" standalone="no"?>
<!-- Created with Inkscape (http://www.inkscape.org/) -->

<svg
   xmlns:dc="http://purl.org/dc/elements/1.1/"
   xmlns:cc="http://creativecommons.org/ns#"
   xmlns:rdf="http://www.w3.org/1999/02/22-rdf-syntax-ns#"
   xmlns:svg="http://www.w3.org/2000/svg"
   xmlns="http://www.w3.org/2000/svg"
   xmlns:sodipodi="http://sodipodi.sourceforge.net/DTD/sodipodi-0.dtd"
   xmlns:inkscape="http://www.inkscape.org/namespaces/inkscape"
   id="svg2"
   version="1.1"
   inkscape:version="0.48.3.1 r9886"
   width="61"
   height="61"
   xml:space="preserve"
   sodipodi:docname="computer.svg"><metadata
     id="metadata8"><rdf:RDF><cc:Work
         rdf:about=""><dc:format>image/svg+xml</dc:format><dc:type
           rdf:resource="http://purl.org/dc/dcmitype/StillImage" /><dc:title></dc:title></cc:Work></rdf:RDF></metadata><defs
     id="defs6"><inkscape:path-effect
   effect="spiro"
   id="path-effect3909"
   is_visible="true" /><clipPath
   clipPathUnits="userSpaceOnUse"
   id="clipPath16"><path
     d="M 0,32 32,32 32,0 0,0 0,32 z"
     id="path18"
     inkscape:connector-curvature="0" /></clipPath>
	
<clipPath
   id="clipPath16-6"
   clipPathUnits="userSpaceOnUse"><path
     inkscape:connector-curvature="0"
     id="path18-1"
     d="M 0,32 32,32 32,0 0,0 0,32 z" /></clipPath>
	
<clipPath
   id="clipPath16-3"
   clipPathUnits="userSpaceOnUse"><path
     inkscape:connector-curvature="0"
     id="path18-9"
     d="M 0,32 32,32 32,0 0,0 0,32 z" /></clipPath><clipPath
   id="clipPath16-3-8"
   clipPathUnits="userSpaceOnUse"><path
     inkscape:connector-curvature="0"
     id="path18-9-5"
     d="M 0,32 32,32 32,0 0,0 0,32 z" /></clipPath></defs><sodipodi:namedview
     pagecolor="#ffffff"
     bordercolor="#666666"
     borderopacity="1"
     objecttolerance="10"
     gridtolerance="10"
     guidetolerance="10"
     inkscape:pageopacity="0"
     inkscape:pageshadow="2"
     inkscape:window-width="1301"
     inkscape:window-height="744"
     id="namedview4"
     showgrid="false"
     fit-margin-top="0.5"
     fit-margin-left="0.5"
     fit-margin-right="0.5"
     fit-margin-bottom="0.5"
     inkscape:zoom="1.6970563"
     inkscape:cx="-224.58689"
     inkscape:cy="10.002834"
     inkscape:window-x="65"
     inkscape:window-y="24"
     inkscape:window-maximized="1"
     inkscape:current-layer="g10" /><g
     id="g10"
     inkscape:groupmode="layer"
     inkscape:label="mono-social-circle"
     transform="matrix(1.25,0,0,-1.25,-27.339549,127.84741)"><g
       clip-path="url(#clipPath16-3-8)"
       id="g14-3-0"
       transform="matrix(1.5,0,0,1.5,22.271639,53.877928)"
       style="fill:#a74b25;fill-opacity:1"><g
         transform="translate(16,32)"
         id="g20-7-7"
         style="fill:#a74b25;fill-opacity:1"><path
           inkscape:connector-curvature="0"
           id="path22-0-9"
           style="fill:#a74b25;fill-opacity:1;fill-rule:nonzero;stroke:none"
           d="m 0,0 c -8.836,0 -16,-7.164 -16,-16 0,-8.836 7.164,-16 16,-16 8.836,0 16,7.164 16,16 C 16,-7.164 8.836,0 0,0" /></g></g><g
       id="g3934"
       transform="translate(-37.389377,0.657586)"><path
         transform="matrix(0.51199999,0,0,-0.51199999,39.850847,39.221698)"
         d="m 78.813558,-91.694916 c 0,4.680379 -3.794197,8.474576 -8.474576,8.474576 -4.680379,0 -8.474576,-3.794197 -8.474576,-8.474576 0,-4.680379 3.794197,-8.474574 8.474576,-8.474574 4.680379,0 8.474576,3.794195 8.474576,8.474574 z"
         sodipodi:ry="8.474576"
         sodipodi:rx="8.474576"
         sodipodi:cy="-91.694916"
         sodipodi:cx="70.338982"
         id="path3087"
         style="fill:#ffffff;fill-opacity:1;fill-rule:nonzero;stroke:none"
         sodipodi:type="arc" /><path
         transform="matrix(0.51199999,0,0,-0.51199999,55.44407,39.221698)"
         d="m 78.813558,-91.694916 c 0,4.680379 -3.794197,8.474576 -8.474576,8.474576 -4.680379,0 -8.474576,-3.794197 -8.474576,-8.474576 0,-4.680379 3.794197,-8.474574 8.474576,-8.474574 4.680379,0 8.474576,3.794195 8.474576,8.474574 z"
         sodipodi:ry="8.474576"
         sodipodi:rx="8.474576"
         sodipodi:cy="-91.694916"
         sodipodi:cx="70.338982"
         id="path3087-4"
         style="fill:#ffffff;fill-opacity:1;fill-rule:nonzero;stroke:none"
         sodipodi:type="arc" /></g><path
       style="fill:none;stroke:#ffffff;stroke-width:1.29040003;stroke-linejoin:round;stroke-miterlimit:4;stroke-opacity:1;stroke-dasharray:none;stroke-dashoffset:0"
       d="m 32.796639,72.018533 c 1.364528,-6.189859 6.875006,-10.825 13.475,-10.825 6.600328,0 12.110824,4.634676 13.475,10.825 l -26.95,0 z"
       id="path3929"
       inkscape:connector-curvature="0" /></g></svg>