<?xml version="1.0" encoding="UTF-8" standalone="no"?>
<svg
   xmlns:dc="http://purl.org/dc/elements/1.1/"
   xmlns:cc="http://creativecommons.org/ns#"
   xmlns:rdf="http://www.w3.org/1999/02/22-rdf-syntax-ns#"
   xmlns:svg="http://www.w3.org/2000/svg"
   xmlns="http://www.w3.org/2000/svg"
   xmlns:sodipodi="http://sodipodi.sourceforge.net/DTD/sodipodi-0.dtd"
   xmlns:inkscape="http://www.inkscape.org/namespaces/inkscape"
   viewBox="0 0 88.085938 100"
   id="svg2"
   version="1.1"
   inkscape:version="0.48.3.1 r9886"
   width="100%"
   height="100%"
   sodipodi:docname="HTML5_Badge.svg">
  <metadata
     id="metadata18">
    <rdf:RDF>
      <cc:Work
         rdf:about="">
        <dc:format>image/svg+xml</dc:format>
        <dc:type
           rdf:resource="http://purl.org/dc/dcmitype/StillImage" />
        <dc:title>HTML5 Logo Badge</dc:title>
      </cc:Work>
    </rdf:RDF>
  </metadata>
  <defs
     id="defs16" />
  <sodipodi:namedview
     pagecolor="#ffffff"
     bordercolor="#666666"
     borderopacity="1"
     objecttolerance="10"
     gridtolerance="10"
     guidetolerance="10"
     inkscape:pageopacity="0"
     inkscape:pageshadow="2"
     inkscape:window-width="1375"
     inkscape:window-height="876"
     id="namedview14"
     showgrid="false"
     fit-margin-top="0"
     fit-margin-left="0"
     fit-margin-right="0"
     fit-margin-bottom="0"
     inkscape:zoom="3.6875"
     inkscape:cx="39.854907"
     inkscape:cy="72.438477"
     inkscape:window-x="1089"
     inkscape:window-y="24"
     inkscape:window-maximized="1"
     inkscape:current-layer="svg2" />
  <title
     id="title4">HTML5 Logo Badge</title>
  <g
     id="g2995"
     transform="matrix(0.1953125,0,0,0.1953125,-5.859375,0)">
    <path
       id="path6"
       d="M 71,460 30,0 481,0 440,460 255,512"
       inkscape:connector-curvature="0"
       style="fill:#e34f26" />
    <path
       id="path8"
       d="M 256,472 405,431 440,37 256,37"
       inkscape:connector-curvature="0"
       style="fill:#ef652a" />
    <path
       id="path10"
       d="m 256,208 -75,0 -5,-58 80,0 0,-56 -1,0 -141,0 1,15 14,156 127,0 z m 0,147 -1,0 -63,-17 -4,-45 -30,0 -26,0 7,89 116,32 1,0 z"
       inkscape:connector-curvature="0"
       style="fill:#ebebeb" />
    <path
       id="path12"
       d="m 255,208 0,57 70,0 -7,73 -63,17 0,59 116,-32 1,-10 13,-149 2,-15 -16,0 z m 0,-114 0,35 0,21 0,0 137,0 0,0 0,0 1,-12 3,-29 1,-15 z"
       inkscape:connector-curvature="0"
       style="fill:#ffffff" />
  </g>
</svg>
