<?xml version="1.0" encoding="UTF-8" standalone="no"?>
<!-- Created with Inkscape (http://www.inkscape.org/) -->

<svg
   xmlns:dc="http://purl.org/dc/elements/1.1/"
   xmlns:cc="http://creativecommons.org/ns#"
   xmlns:rdf="http://www.w3.org/1999/02/22-rdf-syntax-ns#"
   xmlns:svg="http://www.w3.org/2000/svg"
   xmlns="http://www.w3.org/2000/svg"
   xmlns:sodipodi="http://sodipodi.sourceforge.net/DTD/sodipodi-0.dtd"
   xmlns:inkscape="http://www.inkscape.org/namespaces/inkscape"
   id="svg2"
   version="1.1"
   inkscape:version="0.48.3.1 r9886"
   width="61"
   height="61"
   xml:space="preserve"
   sodipodi:docname="three-icons-02.svg"><metadata
     id="metadata8"><rdf:RDF><cc:Work
         rdf:about=""><dc:format>image/svg+xml</dc:format><dc:type
           rdf:resource="http://purl.org/dc/dcmitype/StillImage" /><dc:title></dc:title></cc:Work></rdf:RDF></metadata><defs
     id="defs6"><inkscape:path-effect
   effect="spiro"
   id="path-effect3909"
   is_visible="true" /><clipPath
   clipPathUnits="userSpaceOnUse"
   id="clipPath16"><path
     d="M 0,32 32,32 32,0 0,0 0,32 z"
     id="path18"
     inkscape:connector-curvature="0" /></clipPath>
	
<clipPath
   id="clipPath16-6"
   clipPathUnits="userSpaceOnUse"><path
     inkscape:connector-curvature="0"
     id="path18-1"
     d="M 0,32 32,32 32,0 0,0 0,32 z" /></clipPath>
	
<clipPath
   id="clipPath16-3"
   clipPathUnits="userSpaceOnUse"><path
     inkscape:connector-curvature="0"
     id="path18-9"
     d="M 0,32 32,32 32,0 0,0 0,32 z" /></clipPath><clipPath
   id="clipPath16-3-8"
   clipPathUnits="userSpaceOnUse"><path
     inkscape:connector-curvature="0"
     id="path18-9-5"
     d="M 0,32 32,32 32,0 0,0 0,32 z" /></clipPath></defs><sodipodi:namedview
     pagecolor="#ffffff"
     bordercolor="#666666"
     borderopacity="1"
     objecttolerance="10"
     gridtolerance="10"
     guidetolerance="10"
     inkscape:pageopacity="0"
     inkscape:pageshadow="2"
     inkscape:window-width="1301"
     inkscape:window-height="744"
     id="namedview4"
     showgrid="false"
     fit-margin-top="0.5"
     fit-margin-left="0.5"
     fit-margin-right="0.5"
     fit-margin-bottom="0.5"
     inkscape:zoom="6.7882252"
     inkscape:cx="65.025101"
     inkscape:cy="22.289568"
     inkscape:window-x="65"
     inkscape:window-y="24"
     inkscape:window-maximized="1"
     inkscape:current-layer="g10" /><g
     id="g10"
     inkscape:groupmode="layer"
     inkscape:label="mono-social-circle"
     transform="matrix(1.25,0,0,-1.25,184.86437,127.84741)"><g
       clip-path="url(#clipPath16-6)"
       id="g14"
       transform="matrix(1.5,0,0,1.5,-147.4915,53.877928)"
       style="fill:#a74b25;fill-opacity:1"><g
         transform="translate(16,32)"
         id="g20"
         style="fill:#a74b25;fill-opacity:1"><path
           inkscape:connector-curvature="0"
           id="path22"
           style="fill:#a74b25;fill-opacity:1;fill-rule:nonzero;stroke:none"
           d="m 0,0 c -8.836,0 -16,-7.164 -16,-16 0,-8.836 7.164,-16 16,-16 8.836,0 16,7.164 16,16 C 16,-7.164 8.836,0 0,0" /></g></g><path
       style="fill:#ffffff;fill-opacity:1"
       inkscape:connector-curvature="0"
       d="m -122.59637,94.955121 c 0.23148,-1.728191 0.26489,-3.890113 1.98672,-6.104044 1.32416,-1.689562 2.81157,-3.225466 3.83364,-4.584273 1.35178,-1.785039 2.30277,-3.927789 2.30277,-6.069115 9.5e-4,-3.415949 -1.63537,-6.860276 -2.75861,-8.861232 -0.17805,-0.0096 -0.35658,-0.01889 -0.5351,-0.02801 0.79382,1.880328 2.37433,4.874407 2.24307,8.02632 -0.0668,1.764825 -0.72415,3.675714 -1.84635,5.13199 -1.25204,1.693452 -3.36963,3.124293 -5.22595,3.272351 0,-6.515661 0,-13.032081 0,-19.547838 0,-1.547862 -0.89594,-2.975572 -2.18821,-3.983785 -1.25783,-1.01144 -2.91417,-1.536759 -4.36636,-1.388322 -0.92508,0.09091 -1.78144,0.504724 -2.37234,1.083855 -0.62535,0.584731 -0.98667,1.364026 -0.98667,2.22124 0,1.351592 0.91891,2.595938 2.17151,3.518544 1.25203,0.950414 2.83871,1.572825 4.16383,1.543023 1.15855,-0.02715 2.17625,-0.179282 2.77342,-0.764014 0,8.846425 0,17.692945 0,26.539656 0.26802,-3.8e-4 0.5367,-0.0026 0.80463,-0.0063 z"
       id="path3006" /></g></svg>